<svg width="64" height="64" viewBox="0 0 64 64" fill="none" xmlns="http://www.w3.org/2000/svg">
  <!-- Black background outside circle -->
  <rect width="64" height="64" fill="#000000"/>
  <!-- Dark grey circular background -->
  <circle cx="32" cy="32" r="30" fill="#2d2d2d"/>
  <!-- Octocat silhouette -->
  <g transform="translate(18, 18)">
    <path d="M14 0C6.268 0 0 6.268 0 14c0 6.188 4.012 11.433 9.574 13.304.7.129.956-.304.956-.672 0-.332-.012-1.214-.018-2.38-3.894.846-4.715-1.878-4.715-1.878-.637-1.619-1.555-2.05-1.555-2.05-1.272-.869.096-.852.096-.852 1.406.099 2.146 1.443 2.146 1.443 1.249 2.14 3.275 1.523 4.073 1.164.124-.904.488-1.523.888-1.873-3.111-.353-6.38-1.556-6.38-6.925 0-1.53.545-2.783 1.44-3.763-.144-.354-.624-1.777.137-3.85 0 0 1.175-.377 3.85 1.438 1.117-.311 2.316-.466 3.51-.471 1.19.005 2.393.16 3.51.471 2.675-1.815 3.85-1.438 3.85-1.438.761 1.929.281 3.496.137 3.85.895.98 1.44 2.233 1.44 3.763 0 5.38-3.275 6.572-6.395 6.925.502.433.95 1.287.95 2.593 0 1.875-.018 3.384-.018 3.844 0 .373.252.81.963.674C22.995 25.433 28 20.188 28 14 28 6.268 21.732 0 14 0z" fill="#4a4a4a"/>
  </g>
</svg>
